<svg x="0" y="0" width="1200" height="200" version="1.1" xmlns="http://www.w3.org/2000/svg" xmlns:xlink="http://www.w3.org/1999/xlink"><g fill="none" stroke="none" stroke-width="none" stroke-linecap="butt" stroke-linejoin="miter" stroke-miterlimit="10" stroke-dasharray="none" stroke-dashoffset="0" font-family="sans-serif" font-weight="normal" font-size="none" text-anchor="start" mix-blend-mode="normal"><g stroke="#000000" stroke-width="0.5" stroke-dasharray="" font-size="12"><path d="M40,160l0,-100"/><path d="M40,60l800,0"/></g><g stroke="#0000ff" stroke-width="0.5" stroke-dasharray="" font-size="12"><path d="M40,160l800,-100"/></g><g stroke="#000000" stroke-width="0.5" stroke-dasharray="10,10" font-size="12"><path d="M40,160l800,0"/></g><path d="M830,60c0,-5.52285 4.47715,-10 10,-10c5.52285,0 10,4.47715 10,10c0,5.52285 -4.47715,10 -10,10c-5.52285,0 -10,-4.47715 -10,-10z" fill="#ffff00" stroke="#000000" stroke-width="1" stroke-dasharray="" font-size="18"/><text x="840" y="45" fill="#000000" stroke-width="1" stroke-dasharray="" font-size="18">Soleil (pour Aristarque: 18 x L)</text><text x="860" y="160" fill="#000000" stroke="#000000" stroke-width="1" stroke-dasharray="" font-size="12">→</text><text x="880" y="160" fill="#000000" stroke-width="1" stroke-dasharray="" font-size="18">Soleil (réel : ~ 500 x L )</text><path d="M30,60c0,-5.52285 4.47715,-10 10,-10c5.52285,0 10,4.47715 10,10c0,5.52285 -4.47715,10 -10,10c-5.52285,0 -10,-4.47715 -10,-10z" fill="#ffffff" stroke="#000000" stroke-width="1" stroke-dasharray="" font-size="12"/><path d="M40,70c-5.52285,0 -10,-4.47715 -10,-10c0,-5.52285 4.47715,-10 10,-10 M40,70l0,-20" fill="#000000" stroke-width="1" stroke-dasharray="" font-size="12"/><text x="40" y="45" fill="#000000" stroke-width="1" stroke-dasharray="" font-size="18">Lune</text><text x="40" y="175" fill="#000000" stroke-width="1" stroke-dasharray="" font-size="18">Terre</text><text x="20" y="110" fill="#000000" stroke-width="1" stroke-dasharray="" font-size="18">L</text><path d="M64.80695,156.89913c-1.56384,-12.51072 -12.19887,-21.89913 -24.80695,-21.89913" stroke="#0000ff" stroke-width="1" stroke-dasharray="" font-size="12"/><text x="45.87589" y="135.70033" fill="#0000ff" stroke-width="1" stroke-dasharray="" font-size="18">87°</text><path d="M90,160c0,-13.26082 -5.26784,-25.97852 -14.64466,-35.35534c-9.37682,-9.37682 -22.09451,-14.64466 -35.35534,-14.64466" stroke="#000000" stroke-width="1" stroke-dasharray="" font-size="12"/><text x="59.13417" y="113.80602" fill="#000000" stroke-width="1" stroke-dasharray="" font-size="18">89.85°</text></g></svg>