<?xml version="1.0" encoding="utf-8" standalone="no"?>
<!DOCTYPE svg PUBLIC "-//W3C//DTD SVG 1.1//EN"
  "http://www.w3.org/Graphics/SVG/1.1/DTD/svg11.dtd">
<!-- Created with matplotlib (https://matplotlib.org/) -->
<svg height="345.6pt" version="1.1" viewBox="0 0 460.8 345.6" width="460.8pt" xmlns="http://www.w3.org/2000/svg" xmlns:xlink="http://www.w3.org/1999/xlink">
 <defs>
  <style type="text/css">
*{stroke-linecap:butt;stroke-linejoin:round;}
  </style>
 </defs>
 <g id="figure_1">
  <g id="patch_1">
   <path d="M 0 345.6 
L 460.8 345.6 
L 460.8 0 
L 0 0 
z
" style="fill:#ffffff;"/>
  </g>
  <g id="axes_1">
   <g id="patch_2">
    <path d="M 369.216 174.528 
C 369.216 157.055246 365.774248 139.752393 359.087715 123.609673 
C 352.401182 107.466954 342.599903 92.798303 330.2448 80.4432 
C 317.889697 68.088097 303.221046 58.286818 287.078327 51.600285 
C 270.935607 44.913752 253.632754 41.472 236.16 41.472 
C 218.687246 41.472 201.384393 44.913752 185.241673 51.600285 
C 169.098954 58.286818 154.430303 68.088097 142.0752 80.4432 
C 129.720097 92.798303 119.918818 107.466954 113.232285 123.609673 
C 106.545752 139.752393 103.104 157.055246 103.104 174.528 
C 103.104 192.000754 106.545752 209.303607 113.232285 225.446327 
C 119.918818 241.589046 129.720097 256.257697 142.0752 268.6128 
C 154.430303 280.967903 169.098954 290.769182 185.241673 297.455715 
C 201.384393 304.142248 218.687246 307.584 236.16 307.584 
C 253.632754 307.584 270.935607 304.142248 287.078327 297.455715 
C 303.221046 290.769182 317.889697 280.967903 330.2448 268.6128 
C 342.599903 256.257697 352.401182 241.589046 359.087715 225.446327 
C 365.774248 209.303607 369.216 192.000754 369.216 174.528 
M 236.16 174.528 
C 236.16 174.528 236.16 174.528 236.16 174.528 
C 236.16 174.528 236.16 174.528 236.16 174.528 
C 236.16 174.528 236.16 174.528 236.16 174.528 
C 236.16 174.528 236.16 174.528 236.16 174.528 
C 236.16 174.528 236.16 174.528 236.16 174.528 
C 236.16 174.528 236.16 174.528 236.16 174.528 
C 236.16 174.528 236.16 174.528 236.16 174.528 
C 236.16 174.528 236.16 174.528 236.16 174.528 
C 236.16 174.528 236.16 174.528 236.16 174.528 
C 236.16 174.528 236.16 174.528 236.16 174.528 
C 236.16 174.528 236.16 174.528 236.16 174.528 
C 236.16 174.528 236.16 174.528 236.16 174.528 
C 236.16 174.528 236.16 174.528 236.16 174.528 
C 236.16 174.528 236.16 174.528 236.16 174.528 
C 236.16 174.528 236.16 174.528 236.16 174.528 
C 236.16 174.528 236.16 174.528 236.16 174.528 
M 369.216 174.528 
z
" style="fill:#ffffff;"/>
   </g>
   <g id="Quiver_1">
    <path clip-path="url(#pc8f2fc327b)" d="M 227.176862 163.027447 
L 226.939684 163.044674 
L 227.194089 163.264625 
L 224.787857 162.96254 
L 227.125181 162.315913 
L 226.90523 162.570318 
L 227.142408 162.553091 
L 227.176862 163.027447 
" style="fill:#0000ff;"/>
    <path clip-path="url(#pc8f2fc327b)" d="M 234.21065 160.141712 
L 233.934921 160.134317 
L 234.203254 160.41744 
L 231.460764 159.792033 
L 234.232835 159.314527 
L 233.949712 159.58286 
L 234.22544 159.590255 
L 234.21065 160.141712 
" style="fill:#0000ff;"/>
    <path clip-path="url(#pc8f2fc327b)" d="M 241.644372 161.089102 
L 241.399572 160.968577 
L 241.523847 161.333902 
L 239.316898 159.63905 
L 242.005947 160.354702 
L 241.640622 160.478977 
L 241.885422 160.599502 
L 241.644372 161.089102 
" style="fill:#ff0000;"/>
    <path clip-path="url(#pc8f2fc327b)" d="M 247.608887 165.658397 
L 247.421998 165.422715 
L 247.373205 165.845286 
L 245.975681 163.114695 
L 248.315931 165.097731 
L 247.893361 165.048938 
L 248.080249 165.284619 
L 247.608887 165.658397 
" style="fill:#ff0000;"/>
    <path clip-path="url(#pc8f2fc327b)" d="M 250.52813 172.581457 
L 250.463857 172.307153 
L 250.253825 172.64573 
L 250.159708 169.774135 
L 251.351045 172.388639 
L 251.012467 172.178607 
L 251.07674 172.452912 
L 250.52813 172.581457 
" style="fill:#ff0000;"/>
    <path clip-path="url(#pc8f2fc327b)" d="M 249.590841 180.06495 
L 249.624534 179.808486 
L 249.334378 180.031256 
L 250.184237 177.53401 
L 250.360231 180.166029 
L 250.137461 179.875873 
L 250.103768 180.132336 
L 249.590841 180.06495 
" style="fill:#ff0000;"/>
    <path clip-path="url(#pc8f2fc327b)" d="M 244.999571 186.148739 
L 245.040614 185.913325 
L 244.764156 186.107696 
L 245.645416 183.835639 
L 245.705814 186.271868 
L 245.511442 185.995411 
L 245.470399 186.230825 
L 244.999571 186.148739 
" style="fill:#ff0000;"/>
    <path clip-path="url(#pc8f2fc327b)" d="M 238.141691 189.370155 
L 237.936614 189.315237 
L 238.086774 189.575232 
L 236.145841 188.615902 
L 238.306444 188.754925 
L 238.04645 188.905084 
L 238.251527 188.960002 
L 238.141691 189.370155 
" style="fill:#ff0000;"/>
    <path clip-path="url(#pc8f2fc327b)" d="M 230.554069 188.405223 
L 230.389855 188.315473 
L 230.464319 188.569438 
L 229.001675 187.343508 
L 230.823319 187.91258 
L 230.569355 187.987044 
L 230.733569 188.076795 
L 230.554069 188.405223 
" style="fill:#0000ff;"/>
    <path clip-path="url(#pc8f2fc327b)" d="M 224.383628 183.77513 
L 224.265293 183.628428 
L 224.236926 183.893464 
L 223.346982 182.189781 
L 224.823732 183.420126 
L 224.558696 183.391759 
L 224.677031 183.53846 
L 224.383628 183.77513 
" style="fill:#0000ff;"/>
    <path clip-path="url(#pc8f2fc327b)" d="M 221.32701 176.689634 
L 221.269842 176.494277 
L 221.131654 176.746803 
L 220.950679 174.678899 
L 221.91308 176.518127 
L 221.660555 176.379939 
L 221.717724 176.575296 
L 221.32701 176.689634 
" style="fill:#0000ff;"/>
    <path clip-path="url(#pc8f2fc327b)" d="M 222.229816 169.125876 
L 222.149475 168.932722 
L 222.036662 169.206217 
L 221.619562 167.113994 
L 222.809278 168.884854 
L 222.535783 168.77204 
L 222.616124 168.965194 
L 222.229816 169.125876 
" style="fill:#0000ff;"/>
    <path clip-path="url(#pc8f2fc327b)" d="M 208.692751 140.011845 
L 208.398407 140.038343 
L 208.719249 140.306189 
L 205.722816 139.982484 
L 208.613256 139.128814 
L 208.345411 139.449656 
L 208.639755 139.423157 
L 208.692751 140.011845 
" style="fill:#0000ff;"/>
    <path clip-path="url(#pc8f2fc327b)" d="M 229.64898 130.968745 
L 229.321462 130.901579 
L 229.581813 131.296263 
L 226.440969 129.969563 
L 229.850479 129.986192 
L 229.455795 130.246543 
L 229.783313 130.31371 
L 229.64898 130.968745 
" style="fill:#0000ff;"/>
    <path clip-path="url(#pc8f2fc327b)" d="M 252.191547 133.586051 
L 251.855959 133.384486 
L 251.989982 133.92164 
L 249.037224 131.23481 
L 252.796243 132.579284 
L 252.259089 132.713308 
L 252.594678 132.914873 
L 252.191547 133.586051 
" style="fill:#ff0000;"/>
    <path clip-path="url(#pc8f2fc327b)" d="M 270.54309 147.0889 
L 270.324894 146.799988 
L 270.254178 147.307096 
L 268.650041 143.981591 
L 271.409823 146.434312 
L 270.902716 146.363596 
L 271.120912 146.652508 
L 270.54309 147.0889 
" style="fill:#ff0000;"/>
    <path clip-path="url(#pc8f2fc327b)" d="M 279.620994 167.975942 
L 279.520629 167.590117 
L 279.235169 168.076307 
L 279.003171 164.017325 
L 280.77847 167.674848 
L 280.29228 167.389387 
L 280.392645 167.775212 
L 279.620994 167.975942 
" style="fill:#ff0000;"/>
    <path clip-path="url(#pc8f2fc327b)" d="M 277.16165 190.627006 
L 277.193855 190.320077 
L 276.85472 190.594801 
L 277.790634 187.589916 
L 278.082438 190.723623 
L 277.807714 190.384488 
L 277.775509 190.691417 
L 277.16165 190.627006 
" style="fill:#ff0000;"/>
    <path clip-path="url(#pc8f2fc327b)" d="M 263.695228 209.074316 
L 263.753039 208.876592 
L 263.497504 209.016505 
L 264.471065 207.154889 
L 264.2884 209.24775 
L 264.148487 208.992215 
L 264.090676 209.189939 
L 263.695228 209.074316 
" style="fill:#ff0000;"/>
    <path clip-path="url(#pc8f2fc327b)" d="M 242.788768 218.427486 
L 242.720017 218.309354 
L 242.670636 218.496237 
L 242.219392 217.177414 
L 243.143165 218.221234 
L 242.956282 218.171853 
L 243.025032 218.289985 
L 242.788768 218.427486 
" style="fill:#ff0000;"/>
    <path clip-path="url(#pc8f2fc327b)" d="M 220.143087 215.996581 
L 220.056894 215.928803 
L 220.075309 216.082774 
L 219.348935 215.232608 
L 220.346421 215.738002 
L 220.19245 215.756417 
L 220.278643 215.824195 
L 220.143087 215.996581 
" style="fill:#0000ff;"/>
    <path clip-path="url(#pc8f2fc327b)" d="M 201.197741 202.193626 
L 201.238901 202.724256 
L 201.71902 202.953926 
L 202.157979 202.652965 
L 202.116819 202.122335 
L 201.6367 201.892665 
L 201.197741 202.193626 
L 201.238901 202.724256 
" style="fill:#0000ff;"/>
    <path clip-path="url(#pc8f2fc327b)" d="M 192.300856 181.626914 
L 192.155918 181.574962 
L 192.248904 181.771853 
L 190.90342 180.962451 
L 192.456714 181.192097 
L 192.259822 181.285084 
L 192.404761 181.337036 
L 192.300856 181.626914 
" style="fill:#0000ff;"/>
    <path clip-path="url(#pc8f2fc327b)" d="M 194.692756 158.895658 
L 194.479177 158.859456 
L 194.656554 159.109237 
L 192.593168 158.320064 
L 194.801361 158.254921 
L 194.55158 158.432298 
L 194.765159 158.4685 
L 194.692756 158.895658 
" style="fill:#0000ff;"/>
    <path clip-path="url(#pc8f2fc327b)" d="M 189.68317 117.459236 
L 189.40318 117.629873 
L 189.853807 117.739227 
L 186.712626 118.885616 
L 189.171259 116.619264 
L 189.061905 117.069892 
L 189.341896 116.899254 
L 189.68317 117.459236 
" style="fill:#0000ff;"/>
    <path clip-path="url(#pc8f2fc327b)" d="M 224.409946 101.934717 
L 224.025007 101.970834 
L 224.446063 102.319655 
L 220.524444 101.91095 
L 224.301594 100.779901 
L 223.952773 101.200957 
L 224.337711 101.16484 
L 224.409946 101.934717 
" style="fill:#0000ff;"/>
    <path clip-path="url(#pc8f2fc327b)" d="M 262.089206 105.761177 
L 261.682246 105.623508 
L 261.951537 106.168138 
L 258.157271 103.977529 
L 262.502213 104.540296 
L 261.957583 104.809588 
L 262.364544 104.947256 
L 262.089206 105.761177 
" style="fill:#ff0000;"/>
    <path clip-path="url(#pc8f2fc327b)" d="M 292.911658 127.992067 
L 292.262142 127.375304 
L 292.281604 128.12773 
L 289.155128 123.691016 
L 293.747534 126.583954 
L 292.995108 126.603415 
L 293.644623 127.220179 
L 292.911658 127.992067 
" style="fill:#ff0000;"/>
    <path clip-path="url(#pc8f2fc327b)" d="M 308.611666 162.601201 
L 308.405319 162.137675 
L 308.14814 162.807549 
L 307.011719 157.759591 
L 310.002245 161.982159 
L 309.332372 161.72498 
L 309.538719 162.188507 
L 308.611666 162.601201 
" style="fill:#ff0000;"/>
    <path clip-path="url(#pc8f2fc327b)" d="M 304.994672 200.460249 
L 304.959644 200.063916 
L 304.598339 200.495277 
L 305.040727 196.461889 
L 306.183672 200.355165 
L 305.752311 199.99386 
L 305.787338 200.390193 
L 304.994672 200.460249 
" style="fill:#ff0000;"/>
    <path clip-path="url(#pc8f2fc327b)" d="M 282.855728 231.391504 
L 282.996817 231.033743 
L 282.497967 231.250415 
L 284.624377 227.954982 
L 283.929011 231.81477 
L 283.712339 231.315921 
L 283.57125 231.673682 
L 282.855728 231.391504 
" style="fill:#ff0000;"/>
    <path clip-path="url(#pc8f2fc327b)" d="M 248.255248 247.28206 
L 248.386961 247.075771 
L 248.048959 247.150348 
L 249.778662 245.350881 
L 248.874116 247.677198 
L 248.799539 247.339196 
L 248.667827 247.545485 
L 248.255248 247.28206 
" style="fill:#ff0000;"/>
    <path clip-path="url(#pc8f2fc327b)" d="M 210.473774 243.757483 
L 210.595298 243.651794 
L 210.368086 243.635959 
L 211.7947 242.822118 
L 210.790841 244.122054 
L 210.806676 243.894841 
L 210.685152 244.00053 
L 210.473774 243.757483 
" style="fill:#0000ff;"/>
    <path clip-path="url(#pc8f2fc327b)" d="M 179.727167 221.452174 
L 179.207775 221.336011 
L 178.847479 221.727737 
L 179.006576 222.235626 
L 179.525968 222.351788 
L 179.886264 221.960062 
L 179.727167 221.452174 
L 179.207775 221.336011 
" style="fill:#0000ff;"/>
    <path clip-path="url(#pc8f2fc327b)" d="M 163.405427 186.642207 
L 162.909933 186.836496 
L 162.830445 187.362751 
L 163.246452 187.694717 
L 163.741945 187.500428 
L 163.821433 186.974173 
L 163.405427 186.642207 
L 162.909933 186.836496 
" style="fill:#0000ff;"/>
    <path clip-path="url(#pc8f2fc327b)" d="M 166.911662 149.22029 
L 166.812878 149.393205 
L 167.084577 149.319075 
L 165.750902 150.850652 
L 166.392918 148.923937 
L 166.467048 149.195636 
L 166.565833 149.022721 
L 166.911662 149.22029 
" style="fill:#0000ff;"/>
    <path clip-path="url(#pc8f2fc327b)" d="M 169.790296 95.562688 
L 169.417046 95.643097 
L 169.870706 95.935938 
L 165.97738 95.993533 
L 169.549068 94.442935 
L 169.256226 94.896596 
L 169.629477 94.816186 
L 169.790296 95.562688 
" style="fill:#0000ff;"/>
    <path clip-path="url(#pc8f2fc327b)" d="M 218.099666 73.036731 
L 217.672222 72.941363 
L 218.004297 73.464174 
L 213.9206 71.655606 
L 218.38577 71.754401 
L 217.862959 72.086476 
L 218.290402 72.181844 
L 218.099666 73.036731 
" style="fill:#0000ff;"/>
    <path clip-path="url(#pc8f2fc327b)" d="M 270.950617 77.606137 
L 270.491525 77.278604 
L 270.615682 78.020972 
L 266.901267 74.063396 
L 271.852103 76.287922 
L 271.109735 76.412079 
L 271.568828 76.739612 
L 270.950617 77.606137 
" style="fill:#ff0000;"/>
    <path clip-path="url(#pc8f2fc327b)" d="M 314.717399 107.968434 
L 313.685647 106.230767 
L 313.499736 106.960124 
L 311.697769 101.840338 
L 315.330272 105.87323 
L 314.600914 105.68732 
L 315.632667 107.424987 
L 314.717399 107.968434 
" style="fill:#ff0000;"/>
    <path clip-path="url(#pc8f2fc327b)" d="M 337.457508 156.098553 
L 337.419476 155.109803 
L 336.908102 155.66209 
L 337.767197 150.30287 
L 339.035425 155.580264 
L 338.483138 155.06889 
L 338.521169 156.05764 
L 337.457508 156.098553 
" style="fill:#ff0000;"/>
    <path clip-path="url(#pc8f2fc327b)" d="M 333.24118 209.195656 
L 333.435722 208.839229 
L 332.884753 209.001114 
L 335.54303 205.825928 
L 334.310461 209.779283 
L 334.148576 209.228314 
L 333.954034 209.584741 
L 333.24118 209.195656 
" style="fill:#ff0000;"/>
    <path clip-path="url(#pc8f2fc327b)" d="M 303.072487 253.187515 
L 303.272826 253.088413 
L 302.973385 252.987176 
L 305.17498 252.396839 
L 303.369791 253.788533 
L 303.471029 253.489092 
L 303.27069 253.588193 
L 303.072487 253.187515 
" style="fill:#ff0000;"/>
    <path clip-path="url(#pc8f2fc327b)" d="M 254.87462 276.08297 
L 255.10498 276.109692 
L 254.901342 275.85261 
L 257.151494 276.58055 
L 254.794454 276.774048 
L 255.051536 276.570411 
L 254.821176 276.543689 
L 254.87462 276.08297 
" style="fill:#ff0000;"/>
    <path clip-path="url(#pc8f2fc327b)" d="M 201.882054 272.018207 
L 201.989889 272.153426 
L 202.017272 271.910372 
L 202.825186 273.478227 
L 201.476398 272.341712 
L 201.719452 272.369096 
L 201.611617 272.233877 
L 201.882054 272.018207 
" style="fill:#0000ff;"/>
    <path clip-path="url(#pc8f2fc327b)" d="M 157.744294 241.960556 
L 157.690474 242.093967 
L 157.877705 242.014376 
L 157.072686 243.24085 
L 157.34406 241.799097 
L 157.423652 241.986328 
L 157.477471 241.852917 
L 157.744294 241.960556 
" style="fill:#0000ff;"/>
    <path clip-path="url(#pc8f2fc327b)" d="M 134.545075 193.832433 
L 134.401375 193.917596 
L 134.630237 193.976133 
L 133.022919 194.540358 
L 134.289588 193.401335 
L 134.231051 193.630197 
L 134.37475 193.545035 
L 134.545075 193.832433 
" style="fill:#0000ff;"/>
    <path clip-path="url(#pc8f2fc327b)" d="M 138.670692 140.614594 
L 138.416818 140.812498 
L 138.868597 140.868467 
L 135.934048 142.339767 
L 138.076978 139.852972 
L 138.021009 140.30475 
L 138.274883 140.106846 
L 138.670692 140.614594 
" style="fill:#0000ff;"/>
   </g>
   <g id="matplotlib.axis_1">
    <g id="xtick_1">
     <g id="line2d_1">
      <path clip-path="url(#pc8f2fc327b)" d="M 236.16 174.528 
L 236.16 307.584 
" style="fill:none;stroke:#b0b0b0;stroke-linecap:square;stroke-width:0.8;"/>
     </g>
     <g id="text_1">
      <!-- 0° -->
      <defs>
       <path d="M 31.78125 66.40625 
Q 24.171875 66.40625 20.328125 58.90625 
Q 16.5 51.421875 16.5 36.375 
Q 16.5 21.390625 20.328125 13.890625 
Q 24.171875 6.390625 31.78125 6.390625 
Q 39.453125 6.390625 43.28125 13.890625 
Q 47.125 21.390625 47.125 36.375 
Q 47.125 51.421875 43.28125 58.90625 
Q 39.453125 66.40625 31.78125 66.40625 
z
M 31.78125 74.21875 
Q 44.046875 74.21875 50.515625 64.515625 
Q 56.984375 54.828125 56.984375 36.375 
Q 56.984375 17.96875 50.515625 8.265625 
Q 44.046875 -1.421875 31.78125 -1.421875 
Q 19.53125 -1.421875 13.0625 8.265625 
Q 6.59375 17.96875 6.59375 36.375 
Q 6.59375 54.828125 13.0625 64.515625 
Q 19.53125 74.21875 31.78125 74.21875 
z
" id="DejaVuSans-48"/>
       <path d="M 25 67.921875 
Q 21.09375 67.921875 18.40625 65.203125 
Q 15.71875 62.5 15.71875 58.59375 
Q 15.71875 54.734375 18.40625 52.078125 
Q 21.09375 49.421875 25 49.421875 
Q 28.90625 49.421875 31.59375 52.078125 
Q 34.28125 54.734375 34.28125 58.59375 
Q 34.28125 62.453125 31.5625 65.1875 
Q 28.859375 67.921875 25 67.921875 
z
M 25 74.21875 
Q 28.125 74.21875 31 73.015625 
Q 33.890625 71.828125 35.984375 69.578125 
Q 38.234375 67.390625 39.359375 64.59375 
Q 40.484375 61.8125 40.484375 58.59375 
Q 40.484375 52.15625 35.96875 47.6875 
Q 31.453125 43.21875 24.90625 43.21875 
Q 18.3125 43.21875 13.90625 47.609375 
Q 9.515625 52 9.515625 58.59375 
Q 9.515625 65.140625 14 69.671875 
Q 18.5 74.21875 25 74.21875 
z
" id="DejaVuSans-176"/>
      </defs>
      <g transform="translate(230.47875 324.343375)scale(0.1 -0.1)">
       <use xlink:href="#DejaVuSans-48"/>
       <use x="63.623047" xlink:href="#DejaVuSans-176"/>
      </g>
     </g>
    </g>
    <g id="xtick_2">
     <g id="line2d_2">
      <path clip-path="url(#pc8f2fc327b)" d="M 236.16 174.528 
L 330.2448 268.6128 
" style="fill:none;stroke:#b0b0b0;stroke-linecap:square;stroke-width:0.8;"/>
     </g>
     <g id="text_2">
      <!-- 45° -->
      <defs>
       <path d="M 37.796875 64.3125 
L 12.890625 25.390625 
L 37.796875 25.390625 
z
M 35.203125 72.90625 
L 47.609375 72.90625 
L 47.609375 25.390625 
L 58.015625 25.390625 
L 58.015625 17.1875 
L 47.609375 17.1875 
L 47.609375 0 
L 37.796875 0 
L 37.796875 17.1875 
L 4.890625 17.1875 
L 4.890625 26.703125 
z
" id="DejaVuSans-52"/>
       <path d="M 10.796875 72.90625 
L 49.515625 72.90625 
L 49.515625 64.59375 
L 19.828125 64.59375 
L 19.828125 46.734375 
Q 21.96875 47.46875 24.109375 47.828125 
Q 26.265625 48.1875 28.421875 48.1875 
Q 40.625 48.1875 47.75 41.5 
Q 54.890625 34.8125 54.890625 23.390625 
Q 54.890625 11.625 47.5625 5.09375 
Q 40.234375 -1.421875 26.90625 -1.421875 
Q 22.3125 -1.421875 17.546875 -0.640625 
Q 12.796875 0.140625 7.71875 1.703125 
L 7.71875 11.625 
Q 12.109375 9.234375 16.796875 8.0625 
Q 21.484375 6.890625 26.703125 6.890625 
Q 35.15625 6.890625 40.078125 11.328125 
Q 45.015625 15.765625 45.015625 23.390625 
Q 45.015625 31 40.078125 35.4375 
Q 35.15625 39.890625 26.703125 39.890625 
Q 22.75 39.890625 18.8125 39.015625 
Q 14.890625 38.140625 10.796875 36.28125 
z
" id="DejaVuSans-53"/>
      </defs>
      <g transform="translate(331.281795 281.27167)scale(0.1 -0.1)">
       <use xlink:href="#DejaVuSans-52"/>
       <use x="63.623047" xlink:href="#DejaVuSans-53"/>
       <use x="127.246094" xlink:href="#DejaVuSans-176"/>
      </g>
     </g>
    </g>
    <g id="xtick_3">
     <g id="line2d_3">
      <path clip-path="url(#pc8f2fc327b)" d="M 236.16 174.528 
L 369.216 174.528 
" style="fill:none;stroke:#b0b0b0;stroke-linecap:square;stroke-width:0.8;"/>
     </g>
     <g id="text_3">
      <!-- 90° -->
      <defs>
       <path d="M 10.984375 1.515625 
L 10.984375 10.5 
Q 14.703125 8.734375 18.5 7.8125 
Q 22.3125 6.890625 25.984375 6.890625 
Q 35.75 6.890625 40.890625 13.453125 
Q 46.046875 20.015625 46.78125 33.40625 
Q 43.953125 29.203125 39.59375 26.953125 
Q 35.25 24.703125 29.984375 24.703125 
Q 19.046875 24.703125 12.671875 31.3125 
Q 6.296875 37.9375 6.296875 49.421875 
Q 6.296875 60.640625 12.9375 67.421875 
Q 19.578125 74.21875 30.609375 74.21875 
Q 43.265625 74.21875 49.921875 64.515625 
Q 56.59375 54.828125 56.59375 36.375 
Q 56.59375 19.140625 48.40625 8.859375 
Q 40.234375 -1.421875 26.421875 -1.421875 
Q 22.703125 -1.421875 18.890625 -0.6875 
Q 15.09375 0.046875 10.984375 1.515625 
z
M 30.609375 32.421875 
Q 37.25 32.421875 41.125 36.953125 
Q 45.015625 41.5 45.015625 49.421875 
Q 45.015625 57.28125 41.125 61.84375 
Q 37.25 66.40625 30.609375 66.40625 
Q 23.96875 66.40625 20.09375 61.84375 
Q 16.21875 57.28125 16.21875 49.421875 
Q 16.21875 41.5 20.09375 36.953125 
Q 23.96875 32.421875 30.609375 32.421875 
z
" id="DejaVuSans-57"/>
      </defs>
      <g transform="translate(374.3535 177.287375)scale(0.1 -0.1)">
       <use xlink:href="#DejaVuSans-57"/>
       <use x="63.623047" xlink:href="#DejaVuSans-48"/>
       <use x="127.246094" xlink:href="#DejaVuSans-176"/>
      </g>
     </g>
    </g>
    <g id="xtick_4">
     <g id="line2d_4">
      <path clip-path="url(#pc8f2fc327b)" d="M 236.16 174.528 
L 330.2448 80.4432 
" style="fill:none;stroke:#b0b0b0;stroke-linecap:square;stroke-width:0.8;"/>
     </g>
     <g id="text_4">
      <!-- 135° -->
      <defs>
       <path d="M 12.40625 8.296875 
L 28.515625 8.296875 
L 28.515625 63.921875 
L 10.984375 60.40625 
L 10.984375 69.390625 
L 28.421875 72.90625 
L 38.28125 72.90625 
L 38.28125 8.296875 
L 54.390625 8.296875 
L 54.390625 0 
L 12.40625 0 
z
" id="DejaVuSans-49"/>
       <path d="M 40.578125 39.3125 
Q 47.65625 37.796875 51.625 33 
Q 55.609375 28.21875 55.609375 21.1875 
Q 55.609375 10.40625 48.1875 4.484375 
Q 40.765625 -1.421875 27.09375 -1.421875 
Q 22.515625 -1.421875 17.65625 -0.515625 
Q 12.796875 0.390625 7.625 2.203125 
L 7.625 11.71875 
Q 11.71875 9.328125 16.59375 8.109375 
Q 21.484375 6.890625 26.8125 6.890625 
Q 36.078125 6.890625 40.9375 10.546875 
Q 45.796875 14.203125 45.796875 21.1875 
Q 45.796875 27.640625 41.28125 31.265625 
Q 36.765625 34.90625 28.71875 34.90625 
L 20.21875 34.90625 
L 20.21875 43.015625 
L 29.109375 43.015625 
Q 36.375 43.015625 40.234375 45.921875 
Q 44.09375 48.828125 44.09375 54.296875 
Q 44.09375 59.90625 40.109375 62.90625 
Q 36.140625 65.921875 28.71875 65.921875 
Q 24.65625 65.921875 20.015625 65.03125 
Q 15.375 64.15625 9.8125 62.3125 
L 9.8125 71.09375 
Q 15.4375 72.65625 20.34375 73.4375 
Q 25.25 74.21875 29.59375 74.21875 
Q 40.828125 74.21875 47.359375 69.109375 
Q 53.90625 64.015625 53.90625 55.328125 
Q 53.90625 49.265625 50.4375 45.09375 
Q 46.96875 40.921875 40.578125 39.3125 
z
" id="DejaVuSans-51"/>
      </defs>
      <g transform="translate(328.100545 73.30308)scale(0.1 -0.1)">
       <use xlink:href="#DejaVuSans-49"/>
       <use x="63.623047" xlink:href="#DejaVuSans-51"/>
       <use x="127.246094" xlink:href="#DejaVuSans-53"/>
       <use x="190.869141" xlink:href="#DejaVuSans-176"/>
      </g>
     </g>
    </g>
    <g id="xtick_5">
     <g id="line2d_5">
      <path clip-path="url(#pc8f2fc327b)" d="M 236.16 174.528 
L 236.16 41.472 
" style="fill:none;stroke:#b0b0b0;stroke-linecap:square;stroke-width:0.8;"/>
     </g>
     <g id="text_5">
      <!-- 180° -->
      <defs>
       <path d="M 31.78125 34.625 
Q 24.75 34.625 20.71875 30.859375 
Q 16.703125 27.09375 16.703125 20.515625 
Q 16.703125 13.921875 20.71875 10.15625 
Q 24.75 6.390625 31.78125 6.390625 
Q 38.8125 6.390625 42.859375 10.171875 
Q 46.921875 13.96875 46.921875 20.515625 
Q 46.921875 27.09375 42.890625 30.859375 
Q 38.875 34.625 31.78125 34.625 
z
M 21.921875 38.8125 
Q 15.578125 40.375 12.03125 44.71875 
Q 8.5 49.078125 8.5 55.328125 
Q 8.5 64.0625 14.71875 69.140625 
Q 20.953125 74.21875 31.78125 74.21875 
Q 42.671875 74.21875 48.875 69.140625 
Q 55.078125 64.0625 55.078125 55.328125 
Q 55.078125 49.078125 51.53125 44.71875 
Q 48 40.375 41.703125 38.8125 
Q 48.828125 37.15625 52.796875 32.3125 
Q 56.78125 27.484375 56.78125 20.515625 
Q 56.78125 9.90625 50.3125 4.234375 
Q 43.84375 -1.421875 31.78125 -1.421875 
Q 19.734375 -1.421875 13.25 4.234375 
Q 6.78125 9.90625 6.78125 20.515625 
Q 6.78125 27.484375 10.78125 32.3125 
Q 14.796875 37.15625 21.921875 38.8125 
z
M 18.3125 54.390625 
Q 18.3125 48.734375 21.84375 45.5625 
Q 25.390625 42.390625 31.78125 42.390625 
Q 38.140625 42.390625 41.71875 45.5625 
Q 45.3125 48.734375 45.3125 54.390625 
Q 45.3125 60.0625 41.71875 63.234375 
Q 38.140625 66.40625 31.78125 66.40625 
Q 25.390625 66.40625 21.84375 63.234375 
Q 18.3125 60.0625 18.3125 54.390625 
z
" id="DejaVuSans-56"/>
      </defs>
      <g transform="translate(224.11625 30.231375)scale(0.1 -0.1)">
       <use xlink:href="#DejaVuSans-49"/>
       <use x="63.623047" xlink:href="#DejaVuSans-56"/>
       <use x="127.246094" xlink:href="#DejaVuSans-48"/>
       <use x="190.869141" xlink:href="#DejaVuSans-176"/>
      </g>
     </g>
    </g>
    <g id="xtick_6">
     <g id="line2d_6">
      <path clip-path="url(#pc8f2fc327b)" d="M 236.16 174.528 
L 142.0752 80.4432 
" style="fill:none;stroke:#b0b0b0;stroke-linecap:square;stroke-width:0.8;"/>
     </g>
     <g id="text_6">
      <!-- 225° -->
      <defs>
       <path d="M 19.1875 8.296875 
L 53.609375 8.296875 
L 53.609375 0 
L 7.328125 0 
L 7.328125 8.296875 
Q 12.9375 14.109375 22.625 23.890625 
Q 32.328125 33.6875 34.8125 36.53125 
Q 39.546875 41.84375 41.421875 45.53125 
Q 43.3125 49.21875 43.3125 52.78125 
Q 43.3125 58.59375 39.234375 62.25 
Q 35.15625 65.921875 28.609375 65.921875 
Q 23.96875 65.921875 18.8125 64.3125 
Q 13.671875 62.703125 7.8125 59.421875 
L 7.8125 69.390625 
Q 13.765625 71.78125 18.9375 73 
Q 24.125 74.21875 28.421875 74.21875 
Q 39.75 74.21875 46.484375 68.546875 
Q 53.21875 62.890625 53.21875 53.421875 
Q 53.21875 48.921875 51.53125 44.890625 
Q 49.859375 40.875 45.40625 35.40625 
Q 44.1875 33.984375 37.640625 27.21875 
Q 31.109375 20.453125 19.1875 8.296875 
z
" id="DejaVuSans-50"/>
      </defs>
      <g transform="translate(120.131955 73.30308)scale(0.1 -0.1)">
       <use xlink:href="#DejaVuSans-50"/>
       <use x="63.623047" xlink:href="#DejaVuSans-50"/>
       <use x="127.246094" xlink:href="#DejaVuSans-53"/>
       <use x="190.869141" xlink:href="#DejaVuSans-176"/>
      </g>
     </g>
    </g>
    <g id="xtick_7">
     <g id="line2d_7">
      <path clip-path="url(#pc8f2fc327b)" d="M 236.16 174.528 
L 103.104 174.528 
" style="fill:none;stroke:#b0b0b0;stroke-linecap:square;stroke-width:0.8;"/>
     </g>
     <g id="text_7">
      <!-- 270° -->
      <defs>
       <path d="M 8.203125 72.90625 
L 55.078125 72.90625 
L 55.078125 68.703125 
L 28.609375 0 
L 18.3125 0 
L 43.21875 64.59375 
L 8.203125 64.59375 
z
" id="DejaVuSans-55"/>
      </defs>
      <g transform="translate(77.06025 177.287375)scale(0.1 -0.1)">
       <use xlink:href="#DejaVuSans-50"/>
       <use x="63.623047" xlink:href="#DejaVuSans-55"/>
       <use x="127.246094" xlink:href="#DejaVuSans-48"/>
       <use x="190.869141" xlink:href="#DejaVuSans-176"/>
      </g>
     </g>
    </g>
    <g id="xtick_8">
     <g id="line2d_8">
      <path clip-path="url(#pc8f2fc327b)" d="M 236.16 174.528 
L 142.0752 268.6128 
" style="fill:none;stroke:#b0b0b0;stroke-linecap:square;stroke-width:0.8;"/>
     </g>
     <g id="text_8">
      <!-- 315° -->
      <g transform="translate(120.131955 281.27167)scale(0.1 -0.1)">
       <use xlink:href="#DejaVuSans-51"/>
       <use x="63.623047" xlink:href="#DejaVuSans-49"/>
       <use x="127.246094" xlink:href="#DejaVuSans-53"/>
       <use x="190.869141" xlink:href="#DejaVuSans-176"/>
      </g>
     </g>
    </g>
   </g>
   <g id="matplotlib.axis_2">
    <g id="ytick_1">
     <g id="line2d_9">
      <path clip-path="url(#pc8f2fc327b)" d="M 236.16 263.232 
L 242.347678 263.015922 
L 248.505211 262.368739 
L 254.602599 261.293605 
L 260.610136 259.795757 
L 266.498555 257.882494 
L 272.239167 255.563136 
L 277.804006 252.848983 
L 283.165958 249.753258 
L 288.298903 246.291043 
L 293.177832 242.479206 
L 297.778976 238.336318 
L 302.079919 233.882561 
L 306.059706 229.139636 
L 309.698949 224.130647 
L 312.979917 218.88 
L 315.886627 213.413274 
L 318.404917 207.757103 
L 320.522517 201.939043 
L 322.229112 195.98744 
L 323.516387 189.931288 
L 324.37807 183.800093 
L 324.809964 177.623725 
L 324.809964 171.432275 
L 324.37807 165.255907 
L 323.516387 159.124712 
L 322.229112 153.06856 
L 320.522517 147.116957 
L 318.404917 141.298897 
L 315.886627 135.642726 
L 312.979917 130.176 
L 309.698949 124.925353 
L 306.059706 119.916364 
L 302.079919 115.173439 
L 297.778976 110.719682 
L 293.177832 106.576794 
L 288.298903 102.764957 
L 283.165958 99.302742 
L 277.804006 96.207017 
L 272.239167 93.492864 
L 266.498555 91.173506 
L 260.610136 89.260243 
L 254.602599 87.762395 
L 248.505211 86.687261 
L 242.347678 86.040078 
L 236.16 85.824 
L 229.972322 86.040078 
L 223.814789 86.687261 
L 217.717401 87.762395 
L 211.709864 89.260243 
L 205.821445 91.173506 
L 200.080833 93.492864 
L 194.515994 96.207017 
L 189.154042 99.302742 
L 184.021097 102.764957 
L 179.142168 106.576794 
L 174.541024 110.719682 
L 170.240081 115.173439 
L 166.260294 119.916364 
L 162.621051 124.925353 
L 159.340083 130.176 
L 156.433373 135.642726 
L 153.915083 141.298897 
L 151.797483 147.116957 
L 150.090888 153.06856 
L 148.803613 159.124712 
L 147.94193 165.255907 
L 147.510036 171.432275 
L 147.510036 177.623725 
L 147.94193 183.800093 
L 148.803613 189.931288 
L 150.090888 195.98744 
L 151.797483 201.939043 
L 153.915083 207.757103 
L 156.433373 213.413274 
L 159.340083 218.88 
L 162.621051 224.130647 
L 166.260294 229.139636 
L 170.240081 233.882561 
L 174.541024 238.336318 
L 179.142168 242.479206 
L 184.021097 246.291043 
L 189.154042 249.753258 
L 194.515994 252.848983 
L 200.080833 255.563136 
L 205.821445 257.882494 
L 211.709864 259.795757 
L 217.717401 261.293605 
L 223.814789 262.368739 
L 229.972322 263.015922 
L 236.16 263.232 
L 236.16 263.232 
" style="fill:none;stroke:#b0b0b0;stroke-linecap:square;stroke-width:0.8;"/>
     </g>
     <g id="text_9">
      <!-- 30 -->
      <g transform="translate(270.105551 254.400123)scale(0.1 -0.1)">
       <use xlink:href="#DejaVuSans-51"/>
       <use x="63.623047" xlink:href="#DejaVuSans-48"/>
      </g>
     </g>
    </g>
    <g id="ytick_2">
     <g id="line2d_10">
      <path clip-path="url(#pc8f2fc327b)" d="M 236.16 218.88 
L 239.253839 218.771961 
L 242.332605 218.448369 
L 245.381299 217.910802 
L 248.385068 217.161879 
L 251.329277 216.205247 
L 254.199584 215.045568 
L 256.982003 213.688492 
L 259.662979 212.140629 
L 262.229452 210.409522 
L 264.668916 208.503603 
L 266.969488 206.432159 
L 269.119959 204.205281 
L 271.109853 201.833818 
L 272.929474 199.329324 
L 274.569959 196.704 
L 276.023314 193.970637 
L 277.282458 191.142552 
L 278.341259 188.233522 
L 279.194556 185.25772 
L 279.838193 182.229644 
L 280.269035 179.164046 
L 280.484982 176.075862 
L 280.484982 172.980138 
L 280.269035 169.891954 
L 279.838193 166.826356 
L 279.194556 163.79828 
L 278.341259 160.822478 
L 277.282458 157.913448 
L 276.023314 155.085363 
L 274.569959 152.352 
L 272.929474 149.726676 
L 271.109853 147.222182 
L 269.119959 144.850719 
L 266.969488 142.623841 
L 264.668916 140.552397 
L 262.229452 138.646478 
L 259.662979 136.915371 
L 256.982003 135.367508 
L 254.199584 134.010432 
L 251.329277 132.850753 
L 248.385068 131.894121 
L 245.381299 131.145198 
L 242.332605 130.607631 
L 239.253839 130.284039 
L 236.16 130.176 
L 233.066161 130.284039 
L 229.987395 130.607631 
L 226.938701 131.145198 
L 223.934932 131.894121 
L 220.990723 132.850753 
L 218.120416 134.010432 
L 215.337997 135.367508 
L 212.657021 136.915371 
L 210.090548 138.646478 
L 207.651084 140.552397 
L 205.350512 142.623841 
L 203.200041 144.850719 
L 201.210147 147.222182 
L 199.390526 149.726676 
L 197.750041 152.352 
L 196.296686 155.085363 
L 195.037542 157.913448 
L 193.978741 160.822478 
L 193.125444 163.79828 
L 192.481807 166.826356 
L 192.050965 169.891954 
L 191.835018 172.980138 
L 191.835018 176.075862 
L 192.050965 179.164046 
L 192.481807 182.229644 
L 193.125444 185.25772 
L 193.978741 188.233522 
L 195.037542 191.142552 
L 196.296686 193.970637 
L 197.750041 196.704 
L 199.390526 199.329324 
L 201.210147 201.833818 
L 203.200041 204.205281 
L 205.350512 206.432159 
L 207.651084 208.503603 
L 210.090548 210.409522 
L 212.657021 212.140629 
L 215.337997 213.688492 
L 218.120416 215.045568 
L 220.990723 216.205247 
L 223.934932 217.161879 
L 226.938701 217.910802 
L 229.987395 218.448369 
L 233.066161 218.771961 
L 236.16 218.88 
L 236.16 218.88 
" style="fill:none;stroke:#b0b0b0;stroke-linecap:square;stroke-width:0.8;"/>
     </g>
     <g id="text_10">
      <!-- 60 -->
      <defs>
       <path d="M 33.015625 40.375 
Q 26.375 40.375 22.484375 35.828125 
Q 18.609375 31.296875 18.609375 23.390625 
Q 18.609375 15.53125 22.484375 10.953125 
Q 26.375 6.390625 33.015625 6.390625 
Q 39.65625 6.390625 43.53125 10.953125 
Q 47.40625 15.53125 47.40625 23.390625 
Q 47.40625 31.296875 43.53125 35.828125 
Q 39.65625 40.375 33.015625 40.375 
z
M 52.59375 71.296875 
L 52.59375 62.3125 
Q 48.875 64.0625 45.09375 64.984375 
Q 41.3125 65.921875 37.59375 65.921875 
Q 27.828125 65.921875 22.671875 59.328125 
Q 17.53125 52.734375 16.796875 39.40625 
Q 19.671875 43.65625 24.015625 45.921875 
Q 28.375 48.1875 33.59375 48.1875 
Q 44.578125 48.1875 50.953125 41.515625 
Q 57.328125 34.859375 57.328125 23.390625 
Q 57.328125 12.15625 50.6875 5.359375 
Q 44.046875 -1.421875 33.015625 -1.421875 
Q 20.359375 -1.421875 13.671875 8.265625 
Q 6.984375 17.96875 6.984375 36.375 
Q 6.984375 53.65625 15.1875 63.9375 
Q 23.390625 74.21875 37.203125 74.21875 
Q 40.921875 74.21875 44.703125 73.484375 
Q 48.484375 72.75 52.59375 71.296875 
z
" id="DejaVuSans-54"/>
      </defs>
      <g transform="translate(253.132776 213.424218)scale(0.1 -0.1)">
       <use xlink:href="#DejaVuSans-54"/>
       <use x="63.623047" xlink:href="#DejaVuSans-48"/>
      </g>
     </g>
    </g>
   </g>
   <g id="patch_3">
    <path d="M 236.16 307.584 
C 253.632754 307.584 270.935607 304.142248 287.078327 297.455715 
C 303.221046 290.769182 317.889697 280.967903 330.2448 268.6128 
C 342.599903 256.257697 352.401182 241.589046 359.087715 225.446327 
C 365.774248 209.303607 369.216 192.000754 369.216 174.528 
C 369.216 157.055246 365.774248 139.752393 359.087715 123.609673 
C 352.401182 107.466954 342.599903 92.798303 330.2448 80.4432 
C 317.889697 68.088097 303.221046 58.286818 287.078327 51.600285 
C 270.935607 44.913752 253.632754 41.472 236.16 41.472 
C 218.687246 41.472 201.384393 44.913752 185.241673 51.600285 
C 169.098954 58.286818 154.430303 68.088097 142.0752 80.4432 
C 129.720097 92.798303 119.918818 107.466954 113.232285 123.609673 
C 106.545752 139.752393 103.104 157.055246 103.104 174.528 
C 103.104 192.000754 106.545752 209.303607 113.232285 225.446327 
C 119.918818 241.589046 129.720097 256.257697 142.0752 268.6128 
C 154.430303 280.967903 169.098954 290.769182 185.241673 297.455715 
C 201.384393 304.142248 218.687246 307.584 236.16 307.584 
" style="fill:none;stroke:#000000;stroke-linecap:square;stroke-linejoin:miter;stroke-width:0.8;"/>
   </g>
   <g id="text_11">
    <!-- Max Error:  51" at RA=6.00, Dec=20.00, Az=130.22, Alt=20.00 -->
    <defs>
     <path d="M 9.8125 72.90625 
L 24.515625 72.90625 
L 43.109375 23.296875 
L 61.8125 72.90625 
L 76.515625 72.90625 
L 76.515625 0 
L 66.890625 0 
L 66.890625 64.015625 
L 48.09375 14.015625 
L 38.1875 14.015625 
L 19.390625 64.015625 
L 19.390625 0 
L 9.8125 0 
z
" id="DejaVuSans-77"/>
     <path d="M 34.28125 27.484375 
Q 23.390625 27.484375 19.1875 25 
Q 14.984375 22.515625 14.984375 16.5 
Q 14.984375 11.71875 18.140625 8.90625 
Q 21.296875 6.109375 26.703125 6.109375 
Q 34.1875 6.109375 38.703125 11.40625 
Q 43.21875 16.703125 43.21875 25.484375 
L 43.21875 27.484375 
z
M 52.203125 31.203125 
L 52.203125 0 
L 43.21875 0 
L 43.21875 8.296875 
Q 40.140625 3.328125 35.546875 0.953125 
Q 30.953125 -1.421875 24.3125 -1.421875 
Q 15.921875 -1.421875 10.953125 3.296875 
Q 6 8.015625 6 15.921875 
Q 6 25.140625 12.171875 29.828125 
Q 18.359375 34.515625 30.609375 34.515625 
L 43.21875 34.515625 
L 43.21875 35.40625 
Q 43.21875 41.609375 39.140625 45 
Q 35.0625 48.390625 27.6875 48.390625 
Q 23 48.390625 18.546875 47.265625 
Q 14.109375 46.140625 10.015625 43.890625 
L 10.015625 52.203125 
Q 14.9375 54.109375 19.578125 55.046875 
Q 24.21875 56 28.609375 56 
Q 40.484375 56 46.34375 49.84375 
Q 52.203125 43.703125 52.203125 31.203125 
z
" id="DejaVuSans-97"/>
     <path d="M 54.890625 54.6875 
L 35.109375 28.078125 
L 55.90625 0 
L 45.3125 0 
L 29.390625 21.484375 
L 13.484375 0 
L 2.875 0 
L 24.125 28.609375 
L 4.6875 54.6875 
L 15.28125 54.6875 
L 29.78125 35.203125 
L 44.28125 54.6875 
z
" id="DejaVuSans-120"/>
     <path id="DejaVuSans-32"/>
     <path d="M 9.8125 72.90625 
L 55.90625 72.90625 
L 55.90625 64.59375 
L 19.671875 64.59375 
L 19.671875 43.015625 
L 54.390625 43.015625 
L 54.390625 34.71875 
L 19.671875 34.71875 
L 19.671875 8.296875 
L 56.78125 8.296875 
L 56.78125 0 
L 9.8125 0 
z
" id="DejaVuSans-69"/>
     <path d="M 41.109375 46.296875 
Q 39.59375 47.171875 37.8125 47.578125 
Q 36.03125 48 33.890625 48 
Q 26.265625 48 22.1875 43.046875 
Q 18.109375 38.09375 18.109375 28.8125 
L 18.109375 0 
L 9.078125 0 
L 9.078125 54.6875 
L 18.109375 54.6875 
L 18.109375 46.1875 
Q 20.953125 51.171875 25.484375 53.578125 
Q 30.03125 56 36.53125 56 
Q 37.453125 56 38.578125 55.875 
Q 39.703125 55.765625 41.0625 55.515625 
z
" id="DejaVuSans-114"/>
     <path d="M 30.609375 48.390625 
Q 23.390625 48.390625 19.1875 42.75 
Q 14.984375 37.109375 14.984375 27.296875 
Q 14.984375 17.484375 19.15625 11.84375 
Q 23.34375 6.203125 30.609375 6.203125 
Q 37.796875 6.203125 41.984375 11.859375 
Q 46.1875 17.53125 46.1875 27.296875 
Q 46.1875 37.015625 41.984375 42.703125 
Q 37.796875 48.390625 30.609375 48.390625 
z
M 30.609375 56 
Q 42.328125 56 49.015625 48.375 
Q 55.71875 40.765625 55.71875 27.296875 
Q 55.71875 13.875 49.015625 6.21875 
Q 42.328125 -1.421875 30.609375 -1.421875 
Q 18.84375 -1.421875 12.171875 6.21875 
Q 5.515625 13.875 5.515625 27.296875 
Q 5.515625 40.765625 12.171875 48.375 
Q 18.84375 56 30.609375 56 
z
" id="DejaVuSans-111"/>
     <path d="M 11.71875 12.40625 
L 22.015625 12.40625 
L 22.015625 0 
L 11.71875 0 
z
M 11.71875 51.703125 
L 22.015625 51.703125 
L 22.015625 39.3125 
L 11.71875 39.3125 
z
" id="DejaVuSans-58"/>
     <path d="M 17.921875 72.90625 
L 17.921875 45.796875 
L 9.625 45.796875 
L 9.625 72.90625 
z
M 36.375 72.90625 
L 36.375 45.796875 
L 28.078125 45.796875 
L 28.078125 72.90625 
z
" id="DejaVuSans-34"/>
     <path d="M 18.3125 70.21875 
L 18.3125 54.6875 
L 36.8125 54.6875 
L 36.8125 47.703125 
L 18.3125 47.703125 
L 18.3125 18.015625 
Q 18.3125 11.328125 20.140625 9.421875 
Q 21.96875 7.515625 27.59375 7.515625 
L 36.8125 7.515625 
L 36.8125 0 
L 27.59375 0 
Q 17.1875 0 13.234375 3.875 
Q 9.28125 7.765625 9.28125 18.015625 
L 9.28125 47.703125 
L 2.6875 47.703125 
L 2.6875 54.6875 
L 9.28125 54.6875 
L 9.28125 70.21875 
z
" id="DejaVuSans-116"/>
     <path d="M 44.390625 34.1875 
Q 47.5625 33.109375 50.5625 29.59375 
Q 53.5625 26.078125 56.59375 19.921875 
L 66.609375 0 
L 56 0 
L 46.6875 18.703125 
Q 43.0625 26.03125 39.671875 28.421875 
Q 36.28125 30.8125 30.421875 30.8125 
L 19.671875 30.8125 
L 19.671875 0 
L 9.8125 0 
L 9.8125 72.90625 
L 32.078125 72.90625 
Q 44.578125 72.90625 50.734375 67.671875 
Q 56.890625 62.453125 56.890625 51.90625 
Q 56.890625 45.015625 53.6875 40.46875 
Q 50.484375 35.9375 44.390625 34.1875 
z
M 19.671875 64.796875 
L 19.671875 38.921875 
L 32.078125 38.921875 
Q 39.203125 38.921875 42.84375 42.21875 
Q 46.484375 45.515625 46.484375 51.90625 
Q 46.484375 58.296875 42.84375 61.546875 
Q 39.203125 64.796875 32.078125 64.796875 
z
" id="DejaVuSans-82"/>
     <path d="M 34.1875 63.1875 
L 20.796875 26.90625 
L 47.609375 26.90625 
z
M 28.609375 72.90625 
L 39.796875 72.90625 
L 67.578125 0 
L 57.328125 0 
L 50.6875 18.703125 
L 17.828125 18.703125 
L 11.1875 0 
L 0.78125 0 
z
" id="DejaVuSans-65"/>
     <path d="M 10.59375 45.40625 
L 73.1875 45.40625 
L 73.1875 37.203125 
L 10.59375 37.203125 
z
M 10.59375 25.484375 
L 73.1875 25.484375 
L 73.1875 17.1875 
L 10.59375 17.1875 
z
" id="DejaVuSans-61"/>
     <path d="M 10.6875 12.40625 
L 21 12.40625 
L 21 0 
L 10.6875 0 
z
" id="DejaVuSans-46"/>
     <path d="M 11.71875 12.40625 
L 22.015625 12.40625 
L 22.015625 4 
L 14.015625 -11.625 
L 7.71875 -11.625 
L 11.71875 4 
z
" id="DejaVuSans-44"/>
     <path d="M 19.671875 64.796875 
L 19.671875 8.109375 
L 31.59375 8.109375 
Q 46.6875 8.109375 53.6875 14.9375 
Q 60.6875 21.78125 60.6875 36.53125 
Q 60.6875 51.171875 53.6875 57.984375 
Q 46.6875 64.796875 31.59375 64.796875 
z
M 9.8125 72.90625 
L 30.078125 72.90625 
Q 51.265625 72.90625 61.171875 64.09375 
Q 71.09375 55.28125 71.09375 36.53125 
Q 71.09375 17.671875 61.125 8.828125 
Q 51.171875 0 30.078125 0 
L 9.8125 0 
z
" id="DejaVuSans-68"/>
     <path d="M 56.203125 29.59375 
L 56.203125 25.203125 
L 14.890625 25.203125 
Q 15.484375 15.921875 20.484375 11.0625 
Q 25.484375 6.203125 34.421875 6.203125 
Q 39.59375 6.203125 44.453125 7.46875 
Q 49.3125 8.734375 54.109375 11.28125 
L 54.109375 2.78125 
Q 49.265625 0.734375 44.1875 -0.34375 
Q 39.109375 -1.421875 33.890625 -1.421875 
Q 20.796875 -1.421875 13.15625 6.1875 
Q 5.515625 13.8125 5.515625 26.8125 
Q 5.515625 40.234375 12.765625 48.109375 
Q 20.015625 56 32.328125 56 
Q 43.359375 56 49.78125 48.890625 
Q 56.203125 41.796875 56.203125 29.59375 
z
M 47.21875 32.234375 
Q 47.125 39.59375 43.09375 43.984375 
Q 39.0625 48.390625 32.421875 48.390625 
Q 24.90625 48.390625 20.390625 44.140625 
Q 15.875 39.890625 15.1875 32.171875 
z
" id="DejaVuSans-101"/>
     <path d="M 48.78125 52.59375 
L 48.78125 44.1875 
Q 44.96875 46.296875 41.140625 47.34375 
Q 37.3125 48.390625 33.40625 48.390625 
Q 24.65625 48.390625 19.8125 42.84375 
Q 14.984375 37.3125 14.984375 27.296875 
Q 14.984375 17.28125 19.8125 11.734375 
Q 24.65625 6.203125 33.40625 6.203125 
Q 37.3125 6.203125 41.140625 7.25 
Q 44.96875 8.296875 48.78125 10.40625 
L 48.78125 2.09375 
Q 45.015625 0.34375 40.984375 -0.53125 
Q 36.96875 -1.421875 32.421875 -1.421875 
Q 20.0625 -1.421875 12.78125 6.34375 
Q 5.515625 14.109375 5.515625 27.296875 
Q 5.515625 40.671875 12.859375 48.328125 
Q 20.21875 56 33.015625 56 
Q 37.15625 56 41.109375 55.140625 
Q 45.0625 54.296875 48.78125 52.59375 
z
" id="DejaVuSans-99"/>
     <path d="M 5.515625 54.6875 
L 48.1875 54.6875 
L 48.1875 46.484375 
L 14.40625 7.171875 
L 48.1875 7.171875 
L 48.1875 0 
L 4.296875 0 
L 4.296875 8.203125 
L 38.09375 47.515625 
L 5.515625 47.515625 
z
" id="DejaVuSans-122"/>
     <path d="M 9.421875 75.984375 
L 18.40625 75.984375 
L 18.40625 0 
L 9.421875 0 
z
" id="DejaVuSans-108"/>
    </defs>
    <g transform="translate(0 345.6)scale(0.1 -0.1)">
     <use xlink:href="#DejaVuSans-77"/>
     <use x="86.279297" xlink:href="#DejaVuSans-97"/>
     <use x="147.558594" xlink:href="#DejaVuSans-120"/>
     <use x="206.738281" xlink:href="#DejaVuSans-32"/>
     <use x="238.525391" xlink:href="#DejaVuSans-69"/>
     <use x="301.708984" xlink:href="#DejaVuSans-114"/>
     <use x="341.072266" xlink:href="#DejaVuSans-114"/>
     <use x="379.935547" xlink:href="#DejaVuSans-111"/>
     <use x="441.117188" xlink:href="#DejaVuSans-114"/>
     <use x="480.480469" xlink:href="#DejaVuSans-58"/>
     <use x="514.171875" xlink:href="#DejaVuSans-32"/>
     <use x="545.958984" xlink:href="#DejaVuSans-32"/>
     <use x="577.746094" xlink:href="#DejaVuSans-53"/>
     <use x="641.369141" xlink:href="#DejaVuSans-49"/>
     <use x="704.992188" xlink:href="#DejaVuSans-34"/>
     <use x="750.988281" xlink:href="#DejaVuSans-32"/>
     <use x="782.775391" xlink:href="#DejaVuSans-97"/>
     <use x="844.054688" xlink:href="#DejaVuSans-116"/>
     <use x="883.263672" xlink:href="#DejaVuSans-32"/>
     <use x="915.050781" xlink:href="#DejaVuSans-82"/>
     <use x="980.533203" xlink:href="#DejaVuSans-65"/>
     <use x="1048.941406" xlink:href="#DejaVuSans-61"/>
     <use x="1132.730469" xlink:href="#DejaVuSans-54"/>
     <use x="1196.353516" xlink:href="#DejaVuSans-46"/>
     <use x="1228.140625" xlink:href="#DejaVuSans-48"/>
     <use x="1291.763672" xlink:href="#DejaVuSans-48"/>
     <use x="1355.386719" xlink:href="#DejaVuSans-44"/>
     <use x="1387.173828" xlink:href="#DejaVuSans-32"/>
     <use x="1418.960938" xlink:href="#DejaVuSans-68"/>
     <use x="1495.962891" xlink:href="#DejaVuSans-101"/>
     <use x="1557.486328" xlink:href="#DejaVuSans-99"/>
     <use x="1612.466797" xlink:href="#DejaVuSans-61"/>
     <use x="1696.255859" xlink:href="#DejaVuSans-50"/>
     <use x="1759.878906" xlink:href="#DejaVuSans-48"/>
     <use x="1823.501953" xlink:href="#DejaVuSans-46"/>
     <use x="1855.289062" xlink:href="#DejaVuSans-48"/>
     <use x="1918.912109" xlink:href="#DejaVuSans-48"/>
     <use x="1982.535156" xlink:href="#DejaVuSans-44"/>
     <use x="2014.322266" xlink:href="#DejaVuSans-32"/>
     <use x="2046.109375" xlink:href="#DejaVuSans-65"/>
     <use x="2114.517578" xlink:href="#DejaVuSans-122"/>
     <use x="2167.007812" xlink:href="#DejaVuSans-61"/>
     <use x="2250.796875" xlink:href="#DejaVuSans-49"/>
     <use x="2314.419922" xlink:href="#DejaVuSans-51"/>
     <use x="2378.042969" xlink:href="#DejaVuSans-48"/>
     <use x="2441.666016" xlink:href="#DejaVuSans-46"/>
     <use x="2473.453125" xlink:href="#DejaVuSans-50"/>
     <use x="2537.076172" xlink:href="#DejaVuSans-50"/>
     <use x="2600.699219" xlink:href="#DejaVuSans-44"/>
     <use x="2632.486328" xlink:href="#DejaVuSans-32"/>
     <use x="2664.273438" xlink:href="#DejaVuSans-65"/>
     <use x="2732.681641" xlink:href="#DejaVuSans-108"/>
     <use x="2760.464844" xlink:href="#DejaVuSans-116"/>
     <use x="2799.673828" xlink:href="#DejaVuSans-61"/>
     <use x="2883.462891" xlink:href="#DejaVuSans-50"/>
     <use x="2947.085938" xlink:href="#DejaVuSans-48"/>
     <use x="3010.708984" xlink:href="#DejaVuSans-46"/>
     <use x="3042.496094" xlink:href="#DejaVuSans-48"/>
     <use x="3106.119141" xlink:href="#DejaVuSans-48"/>
    </g>
   </g>
   <g id="text_12">
    <!-- TeenAstro vs ScopeToSky -->
    <defs>
     <path d="M -0.296875 72.90625 
L 61.375 72.90625 
L 61.375 64.59375 
L 35.5 64.59375 
L 35.5 0 
L 25.59375 0 
L 25.59375 64.59375 
L -0.296875 64.59375 
z
" id="DejaVuSans-84"/>
     <path d="M 54.890625 33.015625 
L 54.890625 0 
L 45.90625 0 
L 45.90625 32.71875 
Q 45.90625 40.484375 42.875 44.328125 
Q 39.84375 48.1875 33.796875 48.1875 
Q 26.515625 48.1875 22.3125 43.546875 
Q 18.109375 38.921875 18.109375 30.90625 
L 18.109375 0 
L 9.078125 0 
L 9.078125 54.6875 
L 18.109375 54.6875 
L 18.109375 46.1875 
Q 21.34375 51.125 25.703125 53.5625 
Q 30.078125 56 35.796875 56 
Q 45.21875 56 50.046875 50.171875 
Q 54.890625 44.34375 54.890625 33.015625 
z
" id="DejaVuSans-110"/>
     <path d="M 44.28125 53.078125 
L 44.28125 44.578125 
Q 40.484375 46.53125 36.375 47.5 
Q 32.28125 48.484375 27.875 48.484375 
Q 21.1875 48.484375 17.84375 46.4375 
Q 14.5 44.390625 14.5 40.28125 
Q 14.5 37.15625 16.890625 35.375 
Q 19.28125 33.59375 26.515625 31.984375 
L 29.59375 31.296875 
Q 39.15625 29.25 43.1875 25.515625 
Q 47.21875 21.78125 47.21875 15.09375 
Q 47.21875 7.46875 41.1875 3.015625 
Q 35.15625 -1.421875 24.609375 -1.421875 
Q 20.21875 -1.421875 15.453125 -0.5625 
Q 10.6875 0.296875 5.421875 2 
L 5.421875 11.28125 
Q 10.40625 8.6875 15.234375 7.390625 
Q 20.0625 6.109375 24.8125 6.109375 
Q 31.15625 6.109375 34.5625 8.28125 
Q 37.984375 10.453125 37.984375 14.40625 
Q 37.984375 18.0625 35.515625 20.015625 
Q 33.0625 21.96875 24.703125 23.78125 
L 21.578125 24.515625 
Q 13.234375 26.265625 9.515625 29.90625 
Q 5.8125 33.546875 5.8125 39.890625 
Q 5.8125 47.609375 11.28125 51.796875 
Q 16.75 56 26.8125 56 
Q 31.78125 56 36.171875 55.265625 
Q 40.578125 54.546875 44.28125 53.078125 
z
" id="DejaVuSans-115"/>
     <path d="M 2.984375 54.6875 
L 12.5 54.6875 
L 29.59375 8.796875 
L 46.6875 54.6875 
L 56.203125 54.6875 
L 35.6875 0 
L 23.484375 0 
z
" id="DejaVuSans-118"/>
     <path d="M 53.515625 70.515625 
L 53.515625 60.890625 
Q 47.90625 63.578125 42.921875 64.890625 
Q 37.9375 66.21875 33.296875 66.21875 
Q 25.25 66.21875 20.875 63.09375 
Q 16.5 59.96875 16.5 54.203125 
Q 16.5 49.359375 19.40625 46.890625 
Q 22.3125 44.4375 30.421875 42.921875 
L 36.375 41.703125 
Q 47.40625 39.59375 52.65625 34.296875 
Q 57.90625 29 57.90625 20.125 
Q 57.90625 9.515625 50.796875 4.046875 
Q 43.703125 -1.421875 29.984375 -1.421875 
Q 24.8125 -1.421875 18.96875 -0.25 
Q 13.140625 0.921875 6.890625 3.21875 
L 6.890625 13.375 
Q 12.890625 10.015625 18.65625 8.296875 
Q 24.421875 6.59375 29.984375 6.59375 
Q 38.421875 6.59375 43.015625 9.90625 
Q 47.609375 13.234375 47.609375 19.390625 
Q 47.609375 24.75 44.3125 27.78125 
Q 41.015625 30.8125 33.5 32.328125 
L 27.484375 33.5 
Q 16.453125 35.6875 11.515625 40.375 
Q 6.59375 45.0625 6.59375 53.421875 
Q 6.59375 63.09375 13.40625 68.65625 
Q 20.21875 74.21875 32.171875 74.21875 
Q 37.3125 74.21875 42.625 73.28125 
Q 47.953125 72.359375 53.515625 70.515625 
z
" id="DejaVuSans-83"/>
     <path d="M 18.109375 8.203125 
L 18.109375 -20.796875 
L 9.078125 -20.796875 
L 9.078125 54.6875 
L 18.109375 54.6875 
L 18.109375 46.390625 
Q 20.953125 51.265625 25.265625 53.625 
Q 29.59375 56 35.59375 56 
Q 45.5625 56 51.78125 48.09375 
Q 58.015625 40.1875 58.015625 27.296875 
Q 58.015625 14.40625 51.78125 6.484375 
Q 45.5625 -1.421875 35.59375 -1.421875 
Q 29.59375 -1.421875 25.265625 0.953125 
Q 20.953125 3.328125 18.109375 8.203125 
z
M 48.6875 27.296875 
Q 48.6875 37.203125 44.609375 42.84375 
Q 40.53125 48.484375 33.40625 48.484375 
Q 26.265625 48.484375 22.1875 42.84375 
Q 18.109375 37.203125 18.109375 27.296875 
Q 18.109375 17.390625 22.1875 11.75 
Q 26.265625 6.109375 33.40625 6.109375 
Q 40.53125 6.109375 44.609375 11.75 
Q 48.6875 17.390625 48.6875 27.296875 
z
" id="DejaVuSans-112"/>
     <path d="M 9.078125 75.984375 
L 18.109375 75.984375 
L 18.109375 31.109375 
L 44.921875 54.6875 
L 56.390625 54.6875 
L 27.390625 29.109375 
L 57.625 0 
L 45.90625 0 
L 18.109375 26.703125 
L 18.109375 0 
L 9.078125 0 
z
" id="DejaVuSans-107"/>
     <path d="M 32.171875 -5.078125 
Q 28.375 -14.84375 24.75 -17.8125 
Q 21.140625 -20.796875 15.09375 -20.796875 
L 7.90625 -20.796875 
L 7.90625 -13.28125 
L 13.1875 -13.28125 
Q 16.890625 -13.28125 18.9375 -11.515625 
Q 21 -9.765625 23.484375 -3.21875 
L 25.09375 0.875 
L 2.984375 54.6875 
L 12.5 54.6875 
L 29.59375 11.921875 
L 46.6875 54.6875 
L 56.203125 54.6875 
z
" id="DejaVuSans-121"/>
    </defs>
    <g transform="translate(161.04 19.670775)scale(0.12 -0.12)">
     <use xlink:href="#DejaVuSans-84"/>
     <use x="44.083984" xlink:href="#DejaVuSans-101"/>
     <use x="105.607422" xlink:href="#DejaVuSans-101"/>
     <use x="167.130859" xlink:href="#DejaVuSans-110"/>
     <use x="230.509766" xlink:href="#DejaVuSans-65"/>
     <use x="298.917969" xlink:href="#DejaVuSans-115"/>
     <use x="351.017578" xlink:href="#DejaVuSans-116"/>
     <use x="390.226562" xlink:href="#DejaVuSans-114"/>
     <use x="429.089844" xlink:href="#DejaVuSans-111"/>
     <use x="490.271484" xlink:href="#DejaVuSans-32"/>
     <use x="522.058594" xlink:href="#DejaVuSans-118"/>
     <use x="581.238281" xlink:href="#DejaVuSans-115"/>
     <use x="633.337891" xlink:href="#DejaVuSans-32"/>
     <use x="665.125" xlink:href="#DejaVuSans-83"/>
     <use x="728.601562" xlink:href="#DejaVuSans-99"/>
     <use x="783.582031" xlink:href="#DejaVuSans-111"/>
     <use x="844.763672" xlink:href="#DejaVuSans-112"/>
     <use x="908.240234" xlink:href="#DejaVuSans-101"/>
     <use x="969.763672" xlink:href="#DejaVuSans-84"/>
     <use x="1013.847656" xlink:href="#DejaVuSans-111"/>
     <use x="1075.029297" xlink:href="#DejaVuSans-83"/>
     <use x="1138.505859" xlink:href="#DejaVuSans-107"/>
     <use x="1192.791016" xlink:href="#DejaVuSans-121"/>
    </g>
   </g>
  </g>
 </g>
 <defs>
  <clipPath id="pc8f2fc327b">
   <path d="M 369.216 174.528 
C 369.216 157.055246 365.774248 139.752393 359.087715 123.609673 
C 352.401182 107.466954 342.599903 92.798303 330.2448 80.4432 
C 317.889697 68.088097 303.221046 58.286818 287.078327 51.600285 
C 270.935607 44.913752 253.632754 41.472 236.16 41.472 
C 218.687246 41.472 201.384393 44.913752 185.241673 51.600285 
C 169.098954 58.286818 154.430303 68.088097 142.0752 80.4432 
C 129.720097 92.798303 119.918818 107.466954 113.232285 123.609673 
C 106.545752 139.752393 103.104 157.055246 103.104 174.528 
C 103.104 192.000754 106.545752 209.303607 113.232285 225.446327 
C 119.918818 241.589046 129.720097 256.257697 142.0752 268.6128 
C 154.430303 280.967903 169.098954 290.769182 185.241673 297.455715 
C 201.384393 304.142248 218.687246 307.584 236.16 307.584 
C 253.632754 307.584 270.935607 304.142248 287.078327 297.455715 
C 303.221046 290.769182 317.889697 280.967903 330.2448 268.6128 
C 342.599903 256.257697 352.401182 241.589046 359.087715 225.446327 
C 365.774248 209.303607 369.216 192.000754 369.216 174.528 
M 236.16 174.528 
C 236.16 174.528 236.16 174.528 236.16 174.528 
C 236.16 174.528 236.16 174.528 236.16 174.528 
C 236.16 174.528 236.16 174.528 236.16 174.528 
C 236.16 174.528 236.16 174.528 236.16 174.528 
C 236.16 174.528 236.16 174.528 236.16 174.528 
C 236.16 174.528 236.16 174.528 236.16 174.528 
C 236.16 174.528 236.16 174.528 236.16 174.528 
C 236.16 174.528 236.16 174.528 236.16 174.528 
C 236.16 174.528 236.16 174.528 236.16 174.528 
C 236.16 174.528 236.16 174.528 236.16 174.528 
C 236.16 174.528 236.16 174.528 236.16 174.528 
C 236.16 174.528 236.16 174.528 236.16 174.528 
C 236.16 174.528 236.16 174.528 236.16 174.528 
C 236.16 174.528 236.16 174.528 236.16 174.528 
C 236.16 174.528 236.16 174.528 236.16 174.528 
C 236.16 174.528 236.16 174.528 236.16 174.528 
M 369.216 174.528 
z
"/>
  </clipPath>
 </defs>
</svg>
